<svg width="25" height="24" viewBox="0 0 25 24" fill="none" xmlns="http://www.w3.org/2000/svg">
<path d="M12.9514 2.95016C16.1367 2.95016 18.7288 5.54182 18.7288 8.72751C18.7287 10.0961 18.2488 11.3539 17.4504 12.3447C18.1443 12.7435 18.7918 13.2239 19.3508 13.7832C21.0604 15.4932 22.0022 17.7658 22.0022 20.1816C22.0022 20.661 21.6139 21.0498 21.134 21.0498C20.6542 21.0497 20.2659 20.661 20.2659 20.1816C20.2658 18.2295 19.5048 16.3937 18.1233 15.0117C17.5373 14.426 16.834 13.9417 16.0745 13.58C15.173 14.1623 14.1021 14.5049 12.9514 14.5049C11.805 14.5048 10.7385 14.1642 9.83911 13.5859C7.2792 14.791 5.63898 17.323 5.63892 20.1816C5.63892 20.661 5.25054 21.0497 4.77075 21.0498C4.29088 21.0498 3.90259 20.661 3.90259 20.1816C3.90265 16.8893 5.65198 13.9349 8.44653 12.3379C7.65171 11.3481 7.17413 10.0928 7.17407 8.72751C7.17407 5.54188 9.76621 2.95026 12.9514 2.95016ZM12.9514 4.68649C10.7235 4.68659 8.9104 6.49959 8.9104 8.72751C8.91054 10.9553 10.7236 12.7684 12.9514 12.7685C15.1793 12.7685 16.9923 10.9554 16.9924 8.72751C16.9924 6.49953 15.1794 4.68649 12.9514 4.68649Z" fill="#013D54" stroke="#013D54" stroke-width="0.1"/>
</svg>
