<svg width="25" height="24" viewBox="0 0 25 24" fill="none" xmlns="http://www.w3.org/2000/svg">
<path d="M10.5911 18.7002C11.1365 18.7003 11.6599 18.921 12.0461 19.3145C12.4326 19.7081 12.6506 20.2423 12.6506 20.7998C12.6506 21.2156 12.5295 21.6224 12.303 21.9678C12.0765 22.3131 11.7543 22.5815 11.3782 22.7402C11.0022 22.8989 10.5887 22.9401 10.1897 22.8594C9.79054 22.7785 9.42317 22.5787 9.13501 22.2852C8.84694 21.9916 8.65015 21.6176 8.57056 21.21C8.491 20.8024 8.53178 20.3799 8.68774 19.9961C8.84385 19.6122 9.10884 19.2842 9.44751 19.0537C9.78613 18.8232 10.1842 18.7002 10.5911 18.7002ZM20.3088 18.7002C20.8544 18.7002 21.3785 18.9209 21.7649 19.3145C22.1511 19.7081 22.3684 20.2425 22.3684 20.7998C22.3684 21.2156 22.2473 21.6224 22.0208 21.9678C21.7942 22.313 21.472 22.5816 21.0959 22.7402C20.7199 22.8988 20.3065 22.9402 19.9075 22.8594C19.5083 22.7785 19.1409 22.5787 18.8528 22.2852C18.5648 21.9916 18.3679 21.6175 18.2883 21.21C18.2088 20.8024 18.2505 20.38 18.4065 19.9961C18.5626 19.6122 18.8266 19.2842 19.1653 19.0537C19.5039 18.8232 19.9019 18.7002 20.3088 18.7002ZM3.03247 1.09961H3.63696C4.28779 1.09705 4.92384 1.3016 5.4563 1.68359C5.9877 2.06491 6.39012 2.60486 6.60767 3.22949V3.23047L6.95337 4.33008L6.97583 4.40039H21.7229C22.2126 4.39997 22.6962 4.51631 23.134 4.74023C23.5718 4.96416 23.9519 5.28967 24.2444 5.69043L24.2454 5.69141C24.5372 6.07679 24.7399 6.52492 24.8362 7.00195C24.9324 7.47904 24.9201 7.97266 24.801 8.44434H24.8L24.7991 8.45312L23.7737 14.7227C23.6509 15.4784 23.2658 16.1643 22.6897 16.6553C22.1137 17.1462 21.3844 17.4106 20.634 17.4004H10.2024C9.47783 17.4 8.77495 17.144 8.21411 16.6758C7.65327 16.2074 7.26808 15.5551 7.12524 14.8301V14.8291L5.29028 5.66602L5.28735 5.65723L4.75806 3.91895V3.91699L4.68481 3.74414C4.59985 3.57887 4.47794 3.43508 4.32739 3.3252C4.12635 3.1786 3.88462 3.09904 3.63696 3.09961H3.03247C2.77322 3.09961 2.52398 2.99495 2.34009 2.80762C2.15616 2.62022 2.052 2.36539 2.052 2.09961C2.05211 1.83401 2.15631 1.57987 2.34009 1.39258C2.52398 1.20524 2.77322 1.09961 3.03247 1.09961ZM7.49048 6.51855L9.02368 14.4395C9.07867 14.7142 9.22713 14.9611 9.44263 15.1367C9.65773 15.312 9.92648 15.4047 10.2024 15.3994V15.4004H20.6545V15.3994C20.9373 15.4027 21.2119 15.3031 21.428 15.1182C21.6443 14.933 21.7882 14.675 21.8333 14.3916L21.8323 14.3906L22.8586 8.06738L22.8596 8.05859V7.93066C22.9086 7.75517 22.9187 7.57031 22.887 7.39062C22.8542 7.20559 22.7786 7.03113 22.6672 6.88086C22.5575 6.73185 22.4151 6.61082 22.2512 6.52734C22.0873 6.44388 21.9063 6.40039 21.7229 6.40039H7.46802L7.49048 6.51855Z" fill="#013D54" stroke="white" stroke-width="0.2"/>
</svg>
